#!OML:ASF E:\Style6\Style6.ASF
:FULLY-SPECIFIED
:DEGREES
2187
root 0.298612 18.2502 1.04954 7.87906 -4.29289 -3.49304
lowerback -8.51508 -0.146838 2.9296
upperback -4.25423 -0.455093 2.87054
thorax 0.369146 -0.244383 1.27637
lowerneck -6.77384 0.0898668 3.00348
upperneck 20.773 0.623029 -4.72675
head 7.49925 0.0987576 -2.00382
rclavicle 3.69243e-014 -3.89618e-014
rhumerus 36.4527 2.83504 -75.7889
rradius 64.8135
rwrist -20.8638
rhand -12.4475 -9.64243
rfingers 7.12502
rthumb 13.6257 -39.1765
lclavicle 3.69243e-014 -3.89618e-014
lhumerus 32.067 -5.16697 74.0136
lradius 62.7545
lwrist 42.3234
lhand -20.5968 38.1484
lfingers 7.12502
lthumb 5.7636 68.05
rfemur 0 0 0
rtibia 0
rfoot 0 0
rtoes 0
lfemur -8.27792 -21.3369 -14.9156
ltibia 17.663
lfoot -9.51121 26.0154
ltoes -9.42395
2188
root 0.301226 18.2501 1.05793 7.87813 -4.24134 -3.42938
lowerback -8.57078 -0.143017 2.88834
upperback -4.26136 -0.448865 2.83525
thorax 0.392587 -0.24082 1.26341
lowerneck -6.84583 0.0483722 3.03035
upperneck 20.8037 0.559323 -4.71876
head 7.51961 0.0701491 -2.01174
rclavicle 1.40143e-014 -3.1408e-014
rhumerus 36.2883 2.84664 -75.6661
rradius 64.8945
rwrist -21.0338
rhand -12.5586 -9.84091
rfingers 7.12502
rthumb 13.5187 -39.3821
lclavicle 1.40143e-014 -3.1408e-014
lhumerus 31.9898 -5.27238 73.9943
lradius 62.6677
lwrist 42.368
lhand -20.6487 38.3486
lfingers 7.12502
lthumb 5.71351 68.2516
rfemur 0 0 0
rtibia 0
rfoot 0 0
rtoes 0
lfemur -8.27519 -21.271 -14.9979
ltibia 17.6906
lfoot -9.54011 25.9217
ltoes -9.34801
2189
root 0.303585 18.2528 1.06641 7.86014 -4.24109 -3.36495
lowerback -8.59642 -0.136005 2.82911
upperback -4.27024 -0.435815 2.82253
thorax 0.397986 -0.233574 1.28456
lowerneck -6.87101 0.0253567 3.01699
upperneck 20.8006 0.528601 -4.71773
head 7.5218 0.0542858 -2.01176
rclavicle -2.6339e-015 -2.74323e-014
rhumerus 36.0758 2.90555 -75.5504
rradius 64.9854
rwrist -21.1377
rhand -12.6134 -9.99248
rfingers 7.12502
rthumb 13.4658 -39.5372
lclavicle -2.6339e-015 -2.74323e-014
lhumerus 31.8584 -5.33526 74.0172
lradius 62.5933
lwrist 42.3772
lhand -20.776 38.4307
lfingers 7.12502
lthumb 5.59059 68.337
rfemur 0 0 0
rtibia 0
rfoot 0 0
rtoes 0
lfemur -8.30449 -21.1521 -15.0959
ltibia 17.7788
lfoot -9.43787 25.8437
ltoes -9.20819
2190
root 0.30558 18.2579 1.07221 7.81762 -4.24932 -3.35934
lowerback -8.51986 -0.144026 2.82755
upperback -4.29731 -0.441578 2.82354
thorax 0.327868 -0.237078 1.28631
lowerneck -6.90264 0.0361817 3.01596
upperneck 20.862 0.544784 -4.71737
head 7.5484 0.061294 -2.01108
rclavicle 5.86415e-015 1.39149e-014
rhumerus 35.8332 3.0374 -75.453
rradius 65.0609
rwrist -21.2529
rhand -12.7136 -9.96
rfingers 7.12502
rthumb 13.3693 -39.5111
lclavicle 5.86415e-015 1.39149e-014
lhumerus 31.6581 -5.25539 74.0974
lradius 62.4991
lwrist 42.1507
lhand -20.5473 38.5253
lfingers 7.12502
lthumb 5.81144 68.4256
rfemur 0 0 0
rtibia 0
rfoot 0 0
rtoes 0
lfemur -8.31324 -21.0203 -15.1358
ltibia 17.8268
lfoot -9.25438 25.7675
ltoes -8.54769
2191
root 0.307207 18.256 1.07714 7.80368 -4.20721 -3.32082
lowerback -8.40493 -0.167819 2.78846
upperback -4.37733 -0.461394 2.80933
thorax 0.182096 -0.24796 1.29259
lowerneck -6.93504 0.0316318 3.02088
upperneck 20.9722 0.535483 -4.69482
head 7.59017 0.0583018 -2.00692
rclavicle -4.96962e-015 1.19271e-015
rhumerus 35.5516 3.15642 -75.3631
rradius 65.1308
rwrist -21.3377
rhand -12.7768 -9.90269
rfingers 7.12502
rthumb 13.3084 -39.4577
lclavicle -4.96962e-015 1.19271e-015
lhumerus 31.4094 -5.19455 74.184
lradius 62.4354
lwrist 41.9038
lhand -20.3027 38.622
lfingers 7.12502
lthumb 6.04761 68.5157
rfemur 0 0 0
rtibia 0
rfoot 0 0
rtoes 0
lfemur -8.30949 -20.8885 -15.1841
ltibia 17.8454
lfoot -9.05212 25.6219
ltoes -9.40106
2192
root 0.308472 18.248 1.08165 7.82232 -4.14283 -3.35141
lowerback -8.43109 -0.185747 2.82088
upperback -4.39526 -0.488234 2.82447
thorax 0.177734 -0.261814 1.28782
lowerneck -6.94182 0.0264364 3.00478
upperneck 20.9609 0.527527 -4.68186
head 7.5873 0.0543923 -2.00046
rclavicle -9.0447e-015 3.18055e-015
rhumerus 35.4304 3.22051 -75.2882
rradius 65.13
rwrist -21.406
rhand -12.653 -9.94846
rfingers 7.12502
rthumb 13.4276 -39.4957
lclavicle -9.0447e-015 3.18055e-015
lhumerus 31.2349 -5.23784 74.1505
lradius 62.4406
lwrist 42.0061
lhand -20.5365 38.6636
lfingers 7.12502
lthumb 5.82183 68.5636
rfemur 0 0 0
rtibia 0
rfoot 0 0
rtoes 0
lfemur -8.29355 -20.7743 -15.132
ltibia 17.8565
lfoot -9.16758 25.4192
ltoes -10.3091
2193
root 0.309291 18.2445 1.08636 7.79753 -4.11802 -3.3464
lowerback -8.48159 -0.207957 2.80134
upperback -4.35359 -0.520526 2.83869
thorax 0.249093 -0.276811 1.31031
lowerneck -6.96273 0.0430544 3.04229
upperneck 20.8963 0.553762 -4.73585
head 7.57096 0.0650575 -2.0216
rclavicle -1.85367e-014 7.95139e-016
rhumerus 35.3815 3.27377 -75.2698
rradius 65.1166
rwrist -21.4455
rhand -12.5524 -10.0272
rfingers 7.12502
rthumb 13.5247 -39.568
lclavicle -1.85367e-014 7.95139e-016
lhumerus 31.1248 -5.30661 73.9908
lradius 62.4291
lwrist 42.1918
lhand -20.8155 38.6728
lfingers 7.12502
lthumb 5.5525 68.58
rfemur 0 0 0
rtibia 0
rfoot 0 0
rtoes 0
lfemur -8.19753 -20.7555 -15.1454
ltibia 17.7805
lfoot -9.39408 25.3317
ltoes -9.98438
2194
root 0.310359 18.2443 1.09191 7.78369 -4.1212 -3.3736
lowerback -8.49824 -0.210729 2.83464
upperback -4.33873 -0.528202 2.84968
thorax 0.273372 -0.280798 1.3022
lowerneck -7.04039 0.0453318 3.07045
upperneck 20.9274 0.56201 -4.78481
head 7.59563 0.065731 -2.04258
rclavicle 1.37161e-014 -3.57812e-015
rhumerus 35.2547 3.34033 -75.2136
rradius 65.1357
rwrist -21.5077
rhand -12.5787 -10.0943
rfingers 7.12502
rthumb 13.4993 -39.6367
lclavicle 1.37161e-014 -3.57812e-015
lhumerus 31.0123 -5.35243 73.8674
lradius 62.4368
lwrist 42.3026
lhand -20.8328 38.8703
lfingers 7.12502
lthumb 5.53576 68.7779
rfemur 0 0 0
rtibia 0
rfoot 0 0
rtoes 0
lfemur -8.12042 -20.65 -15.1328
ltibia 17.6957
lfoot -9.50935 25.2241
ltoes -9.56988
2195
root 0.312241 18.2442 1.09938 7.75128 -4.11924 -3.34921
lowerback -8.51972 -0.206024 2.82654
upperback -4.31707 -0.523133 2.84153
thorax 0.307648 -0.27786 1.29855
lowerneck -7.08026 0.0347482 3.01085
upperneck 20.9226 0.546202 -4.73997
head 7.60055 0.0572117 -2.01911
rclavicle -1.02374e-014 -3.57812e-015
rhumerus 35.1414 3.38155 -75.1551
rradius 65.1117
rwrist -21.3704
rhand -12.6031 -10.1236
rfingers 7.12502
rthumb 13.4758 -39.6677
lclavicle -1.02374e-014 -3.57812e-015
lhumerus 30.9549 -5.37292 73.8274
lradius 62.3826
lwrist 42.2264
lhand -20.6803 39.0064
lfingers 7.12502
lthumb 5.68298 68.9102
rfemur 0 0 0
rtibia 0
rfoot 0 0
rtoes 0
lfemur -8.04837 -20.574 -15.1911
ltibia 17.6783
lfoot -9.4011 25.1446
ltoes -9.9302
2196
root 0.313951 18.2436 1.10695 7.75521 -4.10024 -3.33097
lowerback -8.603 -0.220336 2.8161
upperback -4.29343 -0.546395 2.84583
thorax 0.378167 -0.288667 1.30635
lowerneck -7.08101 0.0406674 2.98492
upperneck 20.8513 0.557148 -4.74438
head 7.57764 0.0603826 -2.01425
rclavicle -2.23633e-015 -1.35174e-014
rhumerus 35.024 3.47137 -75.1144
rradius 65.1162
rwrist -21.0813
rhand -12.6032 -10.2554
rfingers 7.12502
rthumb 13.4757 -39.7995
lclavicle -2.23633e-015 -1.35174e-014
lhumerus 30.9053 -5.33185 73.7943
lradius 62.2695
lwrist 42.0407
lhand -20.5637 38.9943
lfingers 7.12502
lthumb 5.79557 68.8951
rfemur 0 0 0
rtibia 0
rfoot 0 0
rtoes 0
lfemur -8.06935 -20.5582 -15.2268
ltibia 17.7671
lfoot -9.33546 25.131
ltoes -10.4178
2197
root 0.316388 18.2469 1.11359 7.74442 -4.11667 -3.33966
lowerback -8.67446 -0.221111 2.85085
upperback -4.24655 -0.55542 2.8449
thorax 0.46564 -0.292812 1.28456
lowerneck -7.13179 0.0513634 2.98194
upperneck 20.8125 0.571314 -4.74947
head 7.57468 0.0660878 -2.01389
rclavicle -1.44119e-014 3.81667e-014
rhumerus 34.9664 3.54568 -75.0738
rradius 65.0903
rwrist -20.9355
rhand -12.6025 -10.3051
rfingers 7.12502
rthumb 13.4764 -39.8491
lclavicle -1.44119e-014 3.81667e-014
lhumerus 30.8752 -5.32677 73.6823
lradius 62.1805
lwrist 41.9481
lhand -20.5725 38.9327
lfingers 7.12502
lthumb 5.78712 68.8336
rfemur 0 0 0
rtibia 0
rfoot 0 0
rtoes 0
lfemur -8.09006 -20.5537 -15.2477
ltibia 17.8491
lfoot -9.13253 25.1854
ltoes -10.5739
2198
root 0.318316 18.2545 1.11799 7.7629 -4.12883 -3.37225
lowerback -8.71819 -0.187793 2.92226
upperback -4.22025 -0.51953 2.82191
thorax 0.515853 -0.275497 1.22365
lowerneck -7.18065 0.0239422 2.98463
upperneck 20.7569 0.523092 -4.71409
head 7.5632 0.0462293 -2.0062
rclavicle 1.03368e-014 1.98785e-015
rhumerus 34.8835 3.49715 -75.0206
rradius 65.0616
rwrist -20.9025
rhand -12.5598 -10.2938
rfingers 7.12502
rthumb 13.5175 -39.835
lclavicle 1.03368e-014 1.98785e-015
lhumerus 30.8863 -5.41295 73.5582
lradius 62.1196
lwrist 41.9746
lhand -20.4557 38.9365
lfingers 7.12502
lthumb 5.89983 68.8344
rfemur 0 0 0
rtibia 0
rfoot 0 0
rtoes 0
lfemur -8.13889 -20.5692 -15.2198
ltibia 17.8496
lfoot -8.82884 25.2535
ltoes -10.2113
2199
root 0.320177 18.2549 1.12218 7.78734 -4.15066 -3.35165
lowerback -8.74966 -0.151715 2.9365
upperback -4.22484 -0.473519 2.78082
thorax 0.527928 -0.252961 1.17723
lowerneck -7.15609 -0.0127743 3.03441
upperneck 20.6704 0.468072 -4.74049
head 7.52796 0.0221079 -2.02669
rclavicle 3.18055e-015 9.54166e-015
rhumerus 34.7531 3.42642 -75.03
rradius 65.0227
rwrist -20.8166
rhand -12.4849 -10.4142
rfingers 7.12502
rthumb 13.5897 -39.9506
lclavicle 3.18055e-015 9.54166e-015
lhumerus 30.8684 -5.52214 73.4707
lradius 62.0458
lwrist 42.0353
lhand -20.4429 39.0173
lfingers 7.12502
lthumb 5.91219 68.9148
rfemur 0 0 0
rtibia 0
rfoot 0 0
rtoes 0
lfemur -8.11866 -20.6065 -15.2521
ltibia 17.8065
lfoot -8.96284 25.2842
ltoes -9.77639
2200
root 0.323509 18.2486 1.12678 7.78883 -4.17112 -3.2521
lowerback -8.76893 -0.131417 2.87295
upperback -4.22974 -0.441705 2.73335
thorax 0.533795 -0.236614 1.16659
lowerneck -7.1417 -0.031878 3.05028
upperneck 20.6012 0.441774 -4.76097
head 7.50144 0.009451 -2.0373
rclavicle 1.2424e-015 -7.15625e-015
rhumerus 34.649 3.42418 -74.9839
rradius 64.9822
rwrist -20.7515
rhand -12.4953 -10.7615
rfingers 7.12502
rthumb 13.5797 -40.2986
lclavicle 1.2424e-015 -7.15625e-015
lhumerus 30.8406 -5.57232 73.4471
lradius 61.9565
lwrist 42.014
lhand -20.405 39.0791
lfingers 7.12502
lthumb 5.94881 68.9756
rfemur 0 0 0
rtibia 0
rfoot 0 0
rtoes 0
lfemur -8.00161 -20.6921 -15.3862
ltibia 17.72
lfoot -9.37382 25.3276
ltoes -9.79368
2201
root 0.32469 18.2458 1.12847 7.83467 -4.18333 -3.22157
lowerback -8.7868 -0.14072 2.84066
upperback -4.24473 -0.451723 2.7224
thorax 0.52835 -0.241427 1.17248
lowerneck -7.17709 -0.0132233 3.06775
upperneck 20.5927 0.465999 -4.77083
head 7.50611 0.0211187 -2.0415
rclavicle 1.65488e-014 -2.98177e-014
rhumerus 34.6115 3.50036 -74.9563
rradius 64.9447
rwrist -20.7234
rhand -12.5748 -10.7634
rfingers 7.12502
rthumb 13.5031 -40.3057
lclavicle 1.65488e-014 -2.98177e-014
lhumerus 30.8083 -5.51361 73.3997
lradius 61.8782
lwrist 42.0105
lhand -20.3671 39.0519
lfingers 7.12502
lthumb 5.98542 68.9474
rfemur 0 0 0
rtibia 0
rfoot 0 0
rtoes 0
lfemur -7.93594 -20.6663 -15.4101
ltibia 17.5523
lfoot -9.45976 25.2777
ltoes -9.85173
2202
root 0.324701 18.2463 1.13031 7.89084 -4.18444 -3.24969
lowerback -8.78684 -0.14721 2.85571
upperback -4.27675 -0.46043 2.73047
thorax 0.495078 -0.246335 1.17173
lowerneck -7.1389 -0.00193023 3.06432
upperneck 20.5318 0.480212 -4.76612
head 7.47988 0.0287656 -2.03716
rclavicle -2.03754e-015 -1.59028e-014
rhumerus 34.5768 3.55696 -74.9478
rradius 64.889
rwrist -20.7658
rhand -12.7006 -10.4499
rfingers 7.12502
rthumb 13.3818 -40.0001
lclavicle -2.03754e-015 -1.59028e-014
lhumerus 30.7667 -5.47631 73.3589
lradius 61.8115
lwrist 41.9767
lhand -20.3991 38.9603
lfingers 7.12502
lthumb 5.95453 68.8566
rfemur 0 0 0
rtibia 0
rfoot 0 0
rtoes 0
lfemur -7.91518 -20.6584 -15.3613
ltibia 17.3989
lfoot -9.24739 25.2802
ltoes -10.1969
